<?xml version="1.0" standalone="no"?>
<!DOCTYPE svg PUBLIC "-//W3C//DTD SVG 1.1//EN" "http://www.w3.org/Graphics/SVG/1.1/DTD/svg11.dtd">
<svg xmlns="http://www.w3.org/2000/svg" width="412" height="233" viewBox="0 0 412 233" fill="none">
<path d="M23.196 193C24.4336 193 25 194.28 25 195.507C25 196.894 24.3817 198.175 23.196 198.175H15.2579V230.134C15.2579 231.361 13.8657 232 12.5264 232C11.1343 232 9.79396 231.361 9.79396 230.134V198.175H1.80402C0.670144 198.175 0 196.948 0 195.561C0 194.334 0.567421 193 1.80402 193H23.196Z" fill="#BC2E66"/>
<path d="M46.0501 210.232H54.8399C56.0954 210.232 56.8375 211.3 56.8375 212.527C56.8375 213.54 56.2102 214.714 54.8399 214.714H46.0501V226.985H63.0024C64.2579 226.985 65 228.158 65 229.546C65 230.72 64.3717 232 63.0024 232H42.6833C41.3704 232 40 231.361 40 230.134V194.868C40 193.641 41.3704 193 42.6833 193H63.0024C64.3717 193 65 194.28 65 195.455C65 196.842 64.2579 198.015 63.0024 198.015H46.0501V210.232Z" fill="#BC2E66"/>
<path d="M87.584 198.974C83.2967 198.974 80.9021 201.144 80.9021 205.801V221.199C80.9021 225.856 83.2967 228.026 87.695 228.026C93.3741 228.026 93.876 224.374 94.0979 222.046C94.2099 220.67 95.3788 220.194 96.9935 220.194C99.0542 220.194 100 220.776 100 223.103C100 228.924 94.9338 233 87.305 233C80.5681 233 75 229.772 75 221.199V205.801C75 197.228 80.6241 194 87.361 194C94.9888 194 100 197.969 100 203.578C100 205.96 99.0542 206.488 97.0495 206.488C95.2678 206.488 94.1539 205.906 94.0979 204.637C93.987 202.784 93.3191 198.974 87.584 198.974" fill="#BC2E66"/>
<path d="M133.252 214.021H119.748V230.134C119.748 231.361 118.338 232 116.875 232C115.465 232 114 231.361 114 230.134V194.815C114 193.534 115.465 193 116.875 193C118.338 193 119.748 193.534 119.748 194.815V209.54H133.252V194.815C133.252 193.534 134.715 193 136.125 193C137.59 193 139 193.534 139 194.815V230.134C139 231.361 137.59 232 136.125 232C134.715 232 133.252 231.361 133.252 230.134V214.021" fill="#BC2E66"/>
<path d="M167.584 198.974C163.297 198.974 160.902 201.144 160.902 205.801V221.199C160.902 225.856 163.297 228.026 167.695 228.026C173.375 228.026 173.876 224.374 174.098 222.046C174.21 220.67 175.379 220.194 176.993 220.194C179.054 220.194 180 220.776 180 223.103C180 228.924 174.934 233 167.305 233C160.568 233 155 229.772 155 221.199V205.801C155 197.228 160.624 194 167.361 194C174.989 194 180 197.969 180 203.578C180 205.96 179.054 206.488 177.05 206.488C175.268 206.488 174.154 205.906 174.098 204.637C173.987 202.784 173.319 198.974 167.584 198.974Z" fill="#BC2E66"/>
<path d="M212.098 205.801C212.098 201.144 209.592 198.974 205.472 198.974C201.297 198.974 198.902 201.144 198.902 205.801V221.199C198.902 225.856 201.297 228.026 205.472 228.026C209.592 228.026 212.098 225.856 212.098 221.199V205.801ZM193 221.199V205.801C193 197.228 198.401 194 205.472 194C212.488 194 218 197.228 218 205.801V221.199C218 229.772 212.488 233 205.472 233C198.401 233 193 229.772 193 221.199" fill="#BC2E66"/>
<path d="M293.709 229.92L280.748 205.644V230.134C280.748 231.361 279.337 232 277.874 232C276.464 232 275 231.361 275 230.134V194.868C275 193.534 276.41 193 277.874 193C279.935 193 280.911 193.747 282.212 196.201L294.252 219.302V194.815C294.252 193.534 295.716 193 297.126 193C298.591 193 300 193.534 300 194.815V230.134C300 231.361 298.591 232 297.126 232C295.716 232 294.469 231.307 293.709 229.92Z" fill="#BC2E66"/>
<path d="M251.709 229.92L238.748 205.644V230.134C238.748 231.361 237.337 232 235.874 232C234.464 232 233 231.361 233 230.134V194.868C233 193.534 234.41 193 235.874 193C237.935 193 238.911 193.747 240.212 196.201L252.252 219.302V194.815C252.252 193.534 253.716 193 255.126 193C256.591 193 258 193.534 258 194.815V230.134C258 231.361 256.591 232 255.126 232C253.716 232 252.469 231.307 251.709 229.92Z" fill="#BC2E66"/>
<path d="M323.05 210.232H331.841C333.096 210.232 333.838 211.3 333.838 212.527C333.838 213.54 333.211 214.714 331.841 214.714H323.05V226.985H340.002C341.258 226.985 342 228.158 342 229.546C342 230.72 341.373 232 340.002 232H319.682C318.369 232 317 231.361 317 230.134V194.868C317 193.641 318.369 193 319.682 193H340.002C341.373 193 342 194.28 342 195.455C342 196.842 341.258 198.015 340.002 198.015H323.05V210.232Z" fill="#BC2E66"/>
<path d="M365.584 198.974C361.296 198.974 358.902 201.144 358.902 205.801V221.199C358.902 225.856 361.296 228.026 365.695 228.026C371.374 228.026 371.875 224.374 372.098 222.046C372.209 220.67 373.379 220.194 374.994 220.194C377.053 220.194 378 220.776 378 223.103C378 228.924 372.933 233 365.305 233C358.568 233 353 229.772 353 221.199V205.801C353 197.228 358.624 194 365.361 194C372.989 194 378 197.969 378 203.578C378 205.96 377.053 206.488 375.05 206.488C373.267 206.488 372.154 205.906 372.098 204.637C371.986 202.784 371.319 198.974 365.584 198.974" fill="#BC2E66"/>
<path d="M410.195 193C411.433 193 412 194.28 412 195.507C412 196.894 411.381 198.175 410.195 198.175H402.257V230.134C402.257 231.361 400.866 232 399.526 232C398.134 232 396.794 231.361 396.794 230.134V198.175H388.805C387.671 198.175 387 196.948 387 195.561C387 194.334 387.567 193 388.805 193H410.195" fill="#BC2E66"/>
<path d="M182.539 27.6061C186.242 30.8029 186.242 35.9909 182.539 39.1877C178.832 42.3886 172.827 42.3886 169.119 39.1877C165.416 35.9909 165.416 30.8029 169.119 27.6061C172.827 24.4052 178.832 24.4052 182.539 27.6061Z" fill="url(#paint0_linear)"/>
<path d="M212.073 2.4882C215.976 5.81006 215.976 11.1899 212.073 14.5118C208.165 17.8294 201.835 17.8294 197.927 14.5118C194.024 11.1899 194.024 5.81006 197.927 2.4882C201.835 -0.829399 208.165 -0.829399 212.073 2.4882Z" fill="url(#paint1_linear)"/>
<path d="M153.368 102.65C157.071 105.851 157.071 111.035 153.368 114.236C149.661 117.432 143.656 117.432 139.948 114.236C136.245 111.035 136.245 105.851 139.948 102.65C143.656 99.4532 149.661 99.4532 153.368 102.65Z" fill="url(#paint2_linear)"/>
<path d="M182.539 77.7176C186.38 81.0378 186.237 86.4974 182.105 89.6572C178.516 92.3931 173.007 92.3602 169.461 89.5831C167.321 87.9086 166.278 85.6005 166.345 83.313C166.421 80.6428 165.158 78.0756 162.97 76.1871L155.145 69.4315C152.91 67.5019 149.86 66.5063 146.7 66.5186H146.614C143.455 66.5063 140.405 67.5019 138.169 69.4315L130.349 76.183C128.209 78.0344 126.932 80.5359 126.975 83.1484C127.013 85.5265 125.855 87.9168 123.51 89.5913C120.088 92.0311 115.056 92.0722 111.591 89.6777C107.092 86.5715 106.82 80.8856 110.776 77.4666C112.625 75.8703 115.051 75.0721 117.472 75.068C120.551 75.068 123.505 74.0354 125.683 72.1552L133.761 65.1815C135.872 63.3548 137.169 60.9027 137.169 58.323C137.169 55.9738 138.336 53.6246 140.667 51.9747C144.117 49.5309 149.197 49.5309 152.648 51.9747C154.978 53.6246 156.146 55.9738 156.146 58.323C156.146 60.9027 157.442 63.3548 159.553 65.1815L167.927 72.4102C170.062 74.2493 172.945 75.2861 175.967 75.3231C178.349 75.3519 180.718 76.1501 182.539 77.7176Z" fill="url(#paint3_linear)"/>
<path d="M240.878 27.8583C244.578 31.0594 244.578 36.2432 240.878 39.4439C237.168 42.6408 231.164 42.6408 227.458 39.4439C223.753 36.2432 223.753 31.0594 227.458 27.8583C231.164 24.6618 237.168 24.6618 240.878 27.8583Z" fill="url(#paint4_linear)"/>
<path d="M182.539 127.834C186.242 131.034 186.242 136.218 182.539 139.419C178.832 142.616 172.827 142.616 169.119 139.419C165.416 136.218 165.416 131.034 169.119 127.834C172.827 124.637 178.832 124.637 182.539 127.834Z" fill="url(#paint5_linear)"/>
<path d="M270.052 53.0408C273.756 56.2373 273.756 61.4256 270.052 64.6265C266.343 67.8231 260.341 67.8231 256.632 64.6265C252.922 61.4256 252.922 56.2373 256.632 53.0408C260.341 49.8398 266.343 49.8398 270.052 53.0408Z" fill="url(#paint6_linear)"/>
<path d="M211.709 153.017C215.412 156.218 215.412 161.402 211.709 164.602C208.002 167.799 201.997 167.799 198.289 164.602C194.586 161.402 194.586 156.218 198.289 153.017C201.997 149.82 208.002 149.82 211.709 153.017Z" fill="url(#paint7_linear)"/>
<path d="M240.878 128.085C244.578 131.286 244.578 136.47 240.878 139.671C237.168 142.872 231.164 142.872 227.458 139.671C223.753 136.47 223.753 131.286 227.458 128.085C231.164 124.889 237.168 124.889 240.878 128.085Z" fill="url(#paint8_linear)"/>
<path d="M299.955 78.9299C302.711 81.9048 302.674 86.2249 299.887 89.1745C297.974 91.195 295.245 92.2068 292.515 92.2027C289.534 92.2027 286.694 93.3177 284.588 95.1405L276.294 102.303C274.193 104.114 272.883 106.537 272.83 109.096C272.778 111.416 271.599 113.724 269.278 115.341C265.81 117.756 260.738 117.724 257.311 115.267C254.959 113.585 253.806 111.186 253.853 108.804C253.906 106.208 252.633 103.723 250.5 101.888L242.342 94.8442C240.215 93.0092 237.344 91.9065 234.342 91.9517C231.57 91.9928 228.788 90.9973 226.839 88.961C224.015 86.0069 223.963 81.6619 226.739 78.6708C230.339 74.7872 236.925 74.5524 240.886 77.9715C242.767 79.5966 243.689 81.7361 243.663 83.8674C243.621 86.447 244.826 88.9279 246.943 90.7549L255.242 97.9259C257.353 99.7442 260.219 100.798 263.2 100.756C263.321 100.756 263.441 100.756 263.557 100.761C266.716 100.818 269.781 99.8636 272.013 97.934L279.752 91.2565C281.905 89.397 283.11 86.8581 283.032 84.2252C282.963 82.0613 283.891 79.8766 285.803 78.2225C289.764 74.8034 296.355 75.0382 299.955 78.9299Z" fill="url(#paint9_linear)"/>
<path d="M212.01 53.0609C215.127 56.0026 215.317 60.5612 212.434 63.6715L212.367 63.7456C210.161 66.0742 208.884 68.9501 208.884 71.9576V95.3142C208.884 98.3218 210.161 101.202 212.367 103.53L212.434 103.604C215.317 106.715 215.127 111.273 212.01 114.215C208.121 117.885 201.354 117.774 197.646 113.874C194.796 110.878 194.81 106.472 197.675 103.485C197.827 103.325 197.989 103.172 198.151 103.024C200.796 100.646 202.278 97.4866 202.278 94.191V73.0849C202.278 69.7894 200.796 66.6256 198.151 64.2516C197.989 64.1035 197.827 63.9472 197.675 63.7867C194.81 60.8039 194.796 56.3975 197.646 53.4024C201.354 49.5021 208.121 49.3869 212.01 53.0609Z" fill="url(#paint10_linear)"/>
<defs>
<linearGradient id="paint0_linear" x1="166.342" y1="33.3969" x2="185.317" y2="33.3969" gradientUnits="userSpaceOnUse">
<stop stop-color="#CC2B5E"/>
<stop offset="1" stop-color="#753A88"/>
</linearGradient>
<linearGradient id="paint1_linear" x1="195" y1="8.5" x2="215" y2="8.5" gradientUnits="userSpaceOnUse">
<stop stop-color="#CC2B5E"/>
<stop offset="1" stop-color="#753A88"/>
</linearGradient>
<linearGradient id="paint2_linear" x1="137.171" y1="108.443" x2="156.146" y2="108.443" gradientUnits="userSpaceOnUse">
<stop stop-color="#CC2B5E"/>
<stop offset="1" stop-color="#753A88"/>
</linearGradient>
<linearGradient id="paint3_linear" x1="108" y1="70.9148" x2="185.315" y2="70.9148" gradientUnits="userSpaceOnUse">
<stop stop-color="#CC2B5E"/>
<stop offset="1" stop-color="#753A88"/>
</linearGradient>
<linearGradient id="paint4_linear" x1="224.68" y1="33.6512" x2="243.653" y2="33.6512" gradientUnits="userSpaceOnUse">
<stop stop-color="#CC2B5E"/>
<stop offset="1" stop-color="#753A88"/>
</linearGradient>
<linearGradient id="paint5_linear" x1="166.342" y1="133.626" x2="185.317" y2="133.626" gradientUnits="userSpaceOnUse">
<stop stop-color="#CC2B5E"/>
<stop offset="1" stop-color="#753A88"/>
</linearGradient>
<linearGradient id="paint6_linear" x1="253.85" y1="58.832" x2="272.83" y2="58.832" gradientUnits="userSpaceOnUse">
<stop stop-color="#CC2B5E"/>
<stop offset="1" stop-color="#753A88"/>
</linearGradient>
<linearGradient id="paint7_linear" x1="195.512" y1="158.81" x2="214.486" y2="158.81" gradientUnits="userSpaceOnUse">
<stop stop-color="#CC2B5E"/>
<stop offset="1" stop-color="#753A88"/>
</linearGradient>
<linearGradient id="paint8_linear" x1="224.68" y1="133.88" x2="243.653" y2="133.88" gradientUnits="userSpaceOnUse">
<stop stop-color="#CC2B5E"/>
<stop offset="1" stop-color="#753A88"/>
</linearGradient>
<linearGradient id="paint9_linear" x1="224.688" y1="96.3514" x2="302" y2="96.3514" gradientUnits="userSpaceOnUse">
<stop stop-color="#CC2B5E"/>
<stop offset="1" stop-color="#753A88"/>
</linearGradient>
<linearGradient id="paint10_linear" x1="195.518" y1="83.6372" x2="214.478" y2="83.6372" gradientUnits="userSpaceOnUse">
<stop stop-color="#CC2B5E"/>
<stop offset="1" stop-color="#753A88"/>
</linearGradient>
</defs>
</svg>